<svg width="351" height="56" viewBox="0 0 351 56" fill="none" xmlns="http://www.w3.org/2000/svg">
<g filter="url(#filter0_d)">
<path d="M21.2245 41H5.67254C5.12854 41 4.85654 40.728 4.85654 40.184V10.952C4.85654 10.408 5.12854 10.136 5.67254 10.136H8.69654C9.24054 10.136 9.51254 10.408 9.51254 10.952V36.344C9.51254 36.664 9.70454 36.824 10.0885 36.824H21.2245C21.7685 36.824 22.0405 37.112 22.0405 37.688V40.184C22.0405 40.728 21.7685 41 21.2245 41ZM26.2259 12.44V8.072C26.2259 7.56 26.4819 7.304 26.9939 7.304H30.1139C30.6259 7.304 30.8819 7.56 30.8819 8.072V12.44C30.8819 12.984 30.6259 13.256 30.1139 13.256H26.9939C26.4819 13.256 26.2259 12.984 26.2259 12.44ZM26.2259 40.184V17.336C26.2259 16.792 26.4819 16.52 26.9939 16.52H30.0659C30.6099 16.52 30.8819 16.792 30.8819 17.336V40.184C30.8819 40.504 30.8179 40.728 30.6899 40.856C30.5939 40.952 30.4019 41 30.1139 41H27.0419C26.4979 41 26.2259 40.728 26.2259 40.184ZM45.925 41H37.093C36.549 41 36.277 40.728 36.277 40.184V37.832C36.277 37.32 36.549 37.064 37.093 37.064H45.157C47.237 37.064 48.277 36.344 48.277 34.904V34.328C48.277 33.048 47.525 32.072 46.021 31.4L40.789 28.904C39.157 28.136 37.973 27.288 37.237 26.36C36.501 25.432 36.133 24.216 36.133 22.712C36.133 18.584 38.421 16.52 42.997 16.52H50.965C51.477 16.52 51.733 16.792 51.733 17.336V19.688C51.733 20.232 51.477 20.504 50.965 20.504H43.957C42.997 20.504 42.261 20.68 41.749 21.032C41.237 21.352 40.981 21.784 40.981 22.328V22.856C40.981 23.88 41.797 24.776 43.429 25.544L48.709 28.232C50.373 28.968 51.509 29.848 52.117 30.872C52.757 31.864 53.077 33.16 53.077 34.76C53.077 38.92 50.693 41 45.925 41ZM58.7684 20.6H56.4644C56.1444 20.6 55.9204 20.552 55.7924 20.456C55.6964 20.328 55.6484 20.12 55.6484 19.832V17.336C55.6484 16.792 55.9204 16.52 56.4644 16.52H58.7684C59.0884 16.52 59.2484 16.36 59.2484 16.04V11.72C59.2484 11.176 59.5364 10.904 60.1124 10.904H63.1364C63.6804 10.904 63.9524 11.176 63.9524 11.72V16.04C63.9524 16.36 64.1284 16.52 64.4804 16.52H68.9444C69.5204 16.52 69.8084 16.792 69.8084 17.336V19.832C69.8084 20.344 69.5204 20.6 68.9444 20.6H64.4804C64.1284 20.6 63.9524 20.76 63.9524 21.08V33.416C63.9524 35.752 65.1524 36.92 67.5524 36.92H69.4244C70.0004 36.92 70.2884 37.192 70.2884 37.736V40.232C70.2884 40.744 70.0004 41 69.4244 41H66.8324C64.4644 41 62.6084 40.36 61.2644 39.08C59.9204 37.8 59.2484 35.992 59.2484 33.656V21.08C59.2484 20.76 59.0884 20.6 58.7684 20.6ZM83.7085 41H81.8365C79.4685 41 77.6285 40.344 76.3165 39.032C75.0365 37.72 74.3965 35.896 74.3965 33.56V23.96C74.3965 21.592 75.0365 19.768 76.3165 18.488C77.6285 17.176 79.4685 16.52 81.8365 16.52H92.5885C93.1645 16.52 93.4525 16.792 93.4525 17.336V40.184C93.4525 40.728 93.1645 41 92.5885 41H89.5645C89.0205 41 88.7485 40.728 88.7485 40.184V38.456H88.5565C87.7885 40.152 86.1725 41 83.7085 41ZM88.7485 32.84V21.08C88.7485 20.76 88.5725 20.6 88.2205 20.6H82.5085C80.2045 20.6 79.0525 21.784 79.0525 24.152V33.368C79.0525 35.736 80.2045 36.92 82.5085 36.92H84.8125C87.4365 36.92 88.7485 35.56 88.7485 32.84ZM119.997 41H117.549C115.245 41 113.469 40.36 112.221 39.08C111.005 37.768 110.397 35.928 110.397 33.56V23.96C110.397 21.56 111.005 19.72 112.221 18.44C113.469 17.16 115.245 16.52 117.549 16.52H119.997C122.461 16.52 124.061 17.368 124.797 19.064H124.989V8.072C124.989 7.528 125.261 7.256 125.805 7.256H128.877C129.421 7.256 129.693 7.528 129.693 8.072V40.184C129.693 40.728 129.421 41 128.877 41H125.805C125.261 41 124.989 40.728 124.989 40.184V38.456H124.797C124.061 40.152 122.461 41 119.997 41ZM124.989 32.84V24.68C124.989 21.96 123.677 20.6 121.053 20.6H118.509C116.205 20.6 115.053 21.784 115.053 24.152V33.368C115.053 35.736 116.205 36.92 118.509 36.92H121.053C123.677 36.92 124.989 35.56 124.989 32.84ZM153.048 41H142.68C140.312 41 138.472 40.344 137.16 39.032C135.88 37.72 135.24 35.896 135.24 33.56V23.96C135.24 21.592 135.88 19.768 137.16 18.488C138.472 17.176 140.312 16.52 142.68 16.52H146.616C148.984 16.52 150.824 17.176 152.136 18.488C153.448 19.768 154.104 21.592 154.104 23.96V30.056C154.104 30.632 153.816 30.92 153.24 30.92H140.376C140.024 30.92 139.848 31.08 139.848 31.4V33.464C139.848 35.8 141.016 36.968 143.352 36.968H153.048C153.624 36.968 153.912 37.256 153.912 37.832V40.232C153.912 40.744 153.624 41 153.048 41ZM140.376 27.656H148.968C149.288 27.656 149.448 27.496 149.448 27.176V24.104C149.448 22.888 149.176 22.008 148.632 21.464C148.088 20.888 147.208 20.6 145.992 20.6H143.352C142.136 20.6 141.256 20.888 140.712 21.464C140.168 22.008 139.896 22.888 139.896 24.104V27.176C139.896 27.496 140.056 27.656 140.376 27.656ZM183.838 41H178.27C175.902 41 174.062 40.344 172.75 39.032C171.47 37.72 170.83 35.896 170.83 33.56V17.576C170.83 15.208 171.47 13.384 172.75 12.104C174.062 10.792 175.902 10.136 178.27 10.136H183.838C186.174 10.136 187.998 10.792 189.31 12.104C190.622 13.384 191.278 15.208 191.278 17.576V19.88C191.278 20.456 190.99 20.744 190.414 20.744H187.39C186.846 20.744 186.574 20.456 186.574 19.88V17.768C186.574 15.4 185.422 14.216 183.118 14.216H178.942C176.638 14.216 175.486 15.4 175.486 17.768V33.368C175.486 35.736 176.638 36.92 178.942 36.92H183.118C185.422 36.92 186.574 35.736 186.574 33.368V31.256C186.574 30.68 186.846 30.392 187.39 30.392H190.414C190.99 30.392 191.278 30.68 191.278 31.256V33.56C191.278 35.896 190.622 37.72 189.31 39.032C187.998 40.344 186.174 41 183.838 41ZM207.936 41H203.712C201.344 41 199.504 40.344 198.192 39.032C196.912 37.72 196.272 35.896 196.272 33.56V23.96C196.272 21.592 196.912 19.768 198.192 18.488C199.504 17.176 201.344 16.52 203.712 16.52H207.936C210.272 16.52 212.096 17.176 213.408 18.488C214.752 19.768 215.424 21.592 215.424 23.96V33.56C215.424 35.896 214.752 37.72 213.408 39.032C212.096 40.344 210.272 41 207.936 41ZM204.384 36.92H207.312C209.616 36.92 210.768 35.752 210.768 33.416V24.104C210.768 21.768 209.616 20.6 207.312 20.6H204.384C203.168 20.6 202.288 20.888 201.744 21.464C201.2 22.008 200.928 22.888 200.928 24.104V33.416C200.928 34.632 201.2 35.528 201.744 36.104C202.288 36.648 203.168 36.92 204.384 36.92ZM224.779 41H221.755C221.211 41 220.939 40.728 220.939 40.184V17.336C220.939 16.792 221.211 16.52 221.755 16.52H224.779C225.323 16.52 225.595 16.792 225.595 17.336V19.064H225.787C226.715 17.368 228.411 16.52 230.875 16.52H232.459C235.243 16.52 237.227 17.576 238.411 19.688C238.923 18.664 239.707 17.88 240.763 17.336C241.819 16.792 242.955 16.52 244.171 16.52H245.707C248.043 16.52 249.819 17.176 251.035 18.488C252.283 19.768 252.907 21.592 252.907 23.96V40.184C252.907 40.728 252.635 41 252.091 41H249.019C248.475 41 248.203 40.728 248.203 40.184V24.152C248.203 21.784 247.051 20.6 244.747 20.6H243.355C240.699 20.6 239.371 21.992 239.371 24.776V40.184C239.371 40.728 239.083 41 238.507 41H235.483C234.939 41 234.667 40.728 234.667 40.184V24.152C234.667 21.784 233.515 20.6 231.211 20.6H229.531C226.907 20.6 225.595 21.96 225.595 24.68V40.184C225.595 40.728 225.323 41 224.779 41ZM262.56 47.768H259.536C258.992 47.768 258.72 47.496 258.72 46.952V17.336C258.72 16.792 258.992 16.52 259.536 16.52H262.56C263.104 16.52 263.376 16.792 263.376 17.336V19.064H263.568C264.336 17.368 265.952 16.52 268.416 16.52H270.864C273.168 16.52 274.928 17.16 276.144 18.44C277.392 19.72 278.016 21.56 278.016 23.96V33.56C278.016 35.928 277.392 37.768 276.144 39.08C274.928 40.36 273.168 41 270.864 41H268.416C265.952 41 264.336 40.152 263.568 38.456H263.376V46.952C263.376 47.496 263.104 47.768 262.56 47.768ZM267.312 36.92H269.856C272.16 36.92 273.312 35.736 273.312 33.368V24.152C273.312 21.784 272.16 20.6 269.856 20.6H267.312C264.688 20.6 263.376 21.96 263.376 24.68V32.84C263.376 35.56 264.688 36.92 267.312 36.92ZM287.404 41H284.38C283.836 41 283.564 40.728 283.564 40.184V17.336C283.564 16.792 283.836 16.52 284.38 16.52H287.404C287.948 16.52 288.22 16.792 288.22 17.336V19.16H288.412C288.732 18.36 289.34 17.72 290.236 17.24C291.164 16.76 292.188 16.52 293.308 16.52H295.084C295.628 16.52 295.9 16.792 295.9 17.336V19.832C295.9 20.44 295.628 20.696 295.084 20.6H292.204C289.548 20.6 288.22 22.056 288.22 24.968V40.184C288.22 40.728 287.948 41 287.404 41ZM308.474 41H306.602C304.234 41 302.394 40.344 301.082 39.032C299.802 37.72 299.162 35.896 299.162 33.56V23.96C299.162 21.592 299.802 19.768 301.082 18.488C302.394 17.176 304.234 16.52 306.602 16.52H317.354C317.93 16.52 318.218 16.792 318.218 17.336V40.184C318.218 40.728 317.93 41 317.354 41H314.33C313.786 41 313.514 40.728 313.514 40.184V38.456H313.322C312.554 40.152 310.938 41 308.474 41ZM313.514 32.84V21.08C313.514 20.76 313.338 20.6 312.986 20.6H307.274C304.97 20.6 303.818 21.784 303.818 24.152V33.368C303.818 35.736 304.97 36.92 307.274 36.92H309.578C312.202 36.92 313.514 35.56 313.514 32.84Z" fill="#FFFBFB"/>
<path d="M337.021 46.39H334.491C333.867 46.39 333.556 46.0783 333.556 45.455V41H332.621C330.017 41 327.964 40.2483 326.461 38.745C324.957 37.205 324.206 35.0967 324.206 32.42V31.155C324.206 30.495 324.536 30.165 325.196 30.165H328.661C329.284 30.165 329.596 30.495 329.596 31.155V31.98C329.596 33.52 329.944 34.6383 330.641 35.335C331.337 35.995 332.474 36.325 334.051 36.325H336.911C338.451 36.325 339.569 35.9767 340.266 35.28C340.962 34.5467 341.311 33.3733 341.311 31.76V30C341.311 28.46 340.834 27.415 339.881 26.865C338.927 26.2783 337.497 25.93 335.591 25.82C332.877 25.71 330.989 25.5083 329.926 25.215C328.862 24.9217 327.891 24.4633 327.011 23.84C325.141 22.5567 324.206 20.1917 324.206 16.745V14.16C324.206 11.4833 324.939 9.39333 326.406 7.89C327.909 6.35 329.981 5.58 332.621 5.58H333.556V1.07C333.556 0.446665 333.867 0.134998 334.491 0.134998H337.021C337.644 0.134998 337.956 0.446665 337.956 1.07V5.58H338.231C340.724 5.58 342.686 6.35 344.116 7.89C345.582 9.43 346.316 11.52 346.316 14.16V15.37C346.316 16.03 346.004 16.36 345.381 16.36H341.916C341.256 16.36 340.926 16.03 340.926 15.37V14.655C340.926 13.115 340.577 12.015 339.881 11.355C339.221 10.6583 338.102 10.31 336.526 10.31H333.996C332.382 10.31 331.246 10.6767 330.586 11.41C329.926 12.1067 329.596 13.3167 329.596 15.04V16.91C329.596 18.3033 330.054 19.275 330.971 19.825C331.924 20.375 333.372 20.705 335.316 20.815L338.121 20.925C340.687 21.0717 342.759 21.805 344.336 23.125C345.912 24.4083 346.701 26.6267 346.701 29.78V32.42C346.701 35.0967 345.931 37.205 344.391 38.745C342.887 40.2483 340.834 41 338.231 41H337.956V45.455C337.956 46.0783 337.644 46.39 337.021 46.39Z" fill="#1DF919"/>
</g>
<defs>
<filter id="filter0_d" x="0.856537" y="0.134995" width="349.844" height="55.633" filterUnits="userSpaceOnUse" color-interpolation-filters="sRGB">
<feFlood flood-opacity="0" result="BackgroundImageFix"/>
<feColorMatrix in="SourceAlpha" type="matrix" values="0 0 0 0 0 0 0 0 0 0 0 0 0 0 0 0 0 0 127 0"/>
<feOffset dy="4"/>
<feGaussianBlur stdDeviation="2"/>
<feColorMatrix type="matrix" values="0 0 0 0 0 0 0 0 0 0 0 0 0 0 0 0 0 0 0.25 0"/>
<feBlend mode="normal" in2="BackgroundImageFix" result="effect1_dropShadow"/>
<feBlend mode="normal" in="SourceGraphic" in2="effect1_dropShadow" result="shape"/>
</filter>
</defs>
</svg>
